<svg xmlns="http://www.w3.org/2000/svg" width="15.853" height="18.117" viewBox="0 0 15.853 18.117">
  <path id="calendar" d="M.425,6.794h15a.426.426,0,0,1,.425.425v9.2a1.7,1.7,0,0,1-1.7,1.7H1.7a1.7,1.7,0,0,1-1.7-1.7v-9.2A.426.426,0,0,1,.425,6.794ZM15.853,5.237V3.963a1.7,1.7,0,0,0-1.7-1.7h-1.7V.425A.426.426,0,0,0,12.031,0H10.616a.426.426,0,0,0-.425.425v1.84H5.662V.425A.426.426,0,0,0,5.237,0H3.822A.426.426,0,0,0,3.4.425v1.84H1.7A1.7,1.7,0,0,0,0,3.963V5.237a.426.426,0,0,0,.425.425h15A.426.426,0,0,0,15.853,5.237Z" fill="#444"/>
</svg>