<svg xmlns="http://www.w3.org/2000/svg" x="0px" y="0px"
width="26" height="26"
viewBox="0 0 172 172"
style=" fill:#000000;">
<g fill="none" fill-rule="nonzero" stroke="none" stroke-width="1" stroke-linecap="butt" stroke-linejoin="miter" stroke-miterlimit="10" stroke-dasharray="" stroke-dashoffset="0" font-family="none" font-weight="none" font-size="none" text-anchor="none" style="mix-blend-mode: normal"><path d="M0,172v-172h172v172z" fill="none"></path><g fill="#e67e22"><path d="M109.56731,105.17428c-1.05949,-0.33594 -7.70072,-3.33354 -3.54026,-15.96996h-0.05169c10.82753,-11.13762 19.09676,-29.09735 19.09676,-46.77283c0,-27.15926 -18.0631,-41.39784 -39.07212,-41.39784c-21.00901,0 -38.96875,14.23858 -38.96875,41.39784c0,17.753 8.21755,35.76442 19.1226,46.90204c4.23798,11.13762 -3.35937,15.27224 -4.9357,15.84075c-21.99098,7.95913 -47.78065,22.45613 -47.78065,36.77223c0,3.85037 0,1.52464 0,5.375c0,19.48438 37.78005,23.92909 72.76923,23.92909c35.04087,0 72.35577,-4.44471 72.35577,-23.92909c0,-3.85036 0,-1.52463 0,-5.375c0,-14.72956 -25.91887,-29.12319 -48.99519,-36.77223z"></path></g></g></svg>