<svg
  width="18"
  height="19"
  viewBox="0 0 18 19"
  fill="none"
  xmlns="http://www.w3.org/2000/svg"
>
  <g clip-path="url(#clip0_5_1293)">
    <path
      d="M9.00001 9.30318C11.0013 9.30318 12.6238 7.33254 12.6238 4.90162C12.6238 2.47064 12.0911 0.5 9.00001 0.5C5.9089 0.5 5.3761 2.47064 5.3761 4.90162C5.3761 7.33254 6.99862 9.30318 9.00001 9.30318Z"
      fill="#7C7C7C"
    />
    <path
      d="M2.15538 16.0239C2.15476 15.8757 2.15414 15.9822 2.15538 16.0239V16.0239Z"
      fill="#7C7C7C"
    />
    <path
      d="M15.8445 16.1395C15.8464 16.0989 15.8452 15.858 15.8445 16.1395V16.1395Z"
      fill="#7C7C7C"
    />
    <path
      d="M15.8367 15.8461C15.7695 11.6114 15.2165 10.4047 10.9843 9.64087C10.9843 9.64087 10.3885 10.4 8.99995 10.4C7.61138 10.4 7.01553 9.64087 7.01553 9.64087C2.8295 10.3964 2.2428 11.5851 2.16566 15.7085C2.15934 16.0452 2.1564 16.0629 2.15527 16.0238C2.15553 16.0971 2.15584 16.2325 2.15584 16.4687C2.15584 16.4687 3.16343 18.5 8.99995 18.5C14.8364 18.5 15.8441 16.4687 15.8441 16.4687C15.8441 16.317 15.8442 16.2114 15.8443 16.1396C15.8432 16.1638 15.8409 16.117 15.8367 15.8461Z"
      fill="#7C7C7C"
    />
  </g>
  <defs>
    <clipPath id="clip0_5_1293">
      <rect
        width="18"
        height="18"
        fill="white"
        transform="translate(0 0.5)"
      />
    </clipPath>
  </defs>
</svg>