<svg v-on="on" width="26" height="27" viewBox="0 0 26 27" fill="none" xmlns="http://www.w3.org/2000/svg">
  <rect y="0.5" width="26" height="26" rx="5" fill="#F4F1F1"/>
  <path d="M14.4723 18.5973C15.0092 18.0603 15.0092 17.1897 14.4723 16.6527C13.9353 16.1158 13.0647 16.1158 12.5277 16.6527C11.9908 17.1897 11.9908 18.0603 12.5277 18.5973C13.0647 19.1342 13.9353 19.1342 14.4723 18.5973Z" fill="#7C7C7C"/>
  <path d="M14.4723 14.4723C15.0092 13.9353 15.0092 13.0647 14.4723 12.5277C13.9353 11.9908 13.0647 11.9908 12.5277 12.5277C11.9908 13.0647 11.9908 13.9353 12.5277 14.4723C13.0647 15.0092 13.9353 15.0092 14.4723 14.4723Z" fill="#7C7C7C"/>
  <path d="M14.4723 10.3473C15.0092 9.8103 15.0092 8.9397 14.4723 8.40273C13.9353 7.86576 13.0647 7.86576 12.5277 8.40273C11.9908 8.9397 11.9908 9.8103 12.5277 10.3473C13.0647 10.8842 13.9353 10.8842 14.4723 10.3473Z" fill="#7C7C7C"/>
</svg>