<svg width="26" height="26" viewBox="0 0 26 26" fill="none" xmlns="http://www.w3.org/2000/svg">
  <rect width="26" height="26" rx="5" fill="#F57829"/>
  <path d="M13.5463 9.11088L19.7763 15.3411C19.9206 15.4852 20 15.6775 20 15.8826C20 16.0877 19.9206 16.2801 19.7763 16.4242L19.3176 16.883C19.0188 17.1815 18.533 17.1815 18.2345 16.883L13.0029 11.6513L7.76547 16.8888C7.62126 17.0329 7.42901 17.1124 7.22402 17.1124C7.01881 17.1124 6.82656 17.0329 6.68224 16.8888L6.22366 16.43C6.07945 16.2858 6 16.0935 6 15.8884C6 15.6833 6.07945 15.491 6.22366 15.3469L12.4594 9.11088C12.6041 8.96644 12.7972 8.88711 13.0026 8.88757C13.2087 8.88711 13.4017 8.96644 13.5463 9.11088Z" fill="white"/>
</svg>