<svg
  width="17"
  height="17"
  viewBox="0 0 17 17"
  fill="none"
  xmlns="http://www.w3.org/2000/svg"
>
  <g clip-path="url(#clip0_5_1310)">
    <path
      d="M9.92073 10.4154C9.49779 10.6974 9.00651 10.8464 8.5 10.8464C7.99352 10.8464 7.50225 10.6974 7.07931 10.4154L0.113189 5.7712C0.074541 5.74544 0.0368887 5.71858 0 5.69095V13.301C0 14.1735 0.708057 14.866 1.56496 14.866H15.435C16.3075 14.866 17 14.1579 17 13.301V5.69092C16.963 5.71861 16.9253 5.74554 16.8865 5.77134L9.92073 10.4154Z"
      fill="#7C7C7C"
    />
    <path
      d="M0.665723 4.94251L7.63184 9.58676C7.89554 9.76257 8.19775 9.85046 8.49997 9.85046C8.80221 9.85046 9.10446 9.76254 9.36816 9.58676L16.3343 4.94251C16.7511 4.66476 17 4.19992 17 3.69822C17 2.83557 16.2982 2.13379 15.4356 2.13379H1.56443C0.701814 2.13382 0 2.8356 0 3.69905C0 4.19992 0.248891 4.66476 0.665723 4.94251Z"
      fill="#7C7C7C"
    />
  </g>
  <defs>
    <clipPath id="clip0_5_1310">
      <rect width="17" height="17" fill="white" />
    </clipPath>
  </defs>
</svg>