<svg
  width="19"
  height="19"
  viewBox="0 0 19 19"
  fill="none"
  xmlns="http://www.w3.org/2000/svg"
>
  <path
    d="M17.8333 13.4187C17.7846 13.3802 14.25 10.8324 13.2798 11.0153C12.8167 11.0972 12.5519 11.4131 12.0205 12.0454C11.935 12.1475 11.7295 12.3922 11.5698 12.5661C11.234 12.4566 10.9064 12.3233 10.5895 12.1671C8.95406 11.3709 7.63265 10.0495 6.83644 8.41403C6.6802 8.09722 6.54686 7.76962 6.43744 7.43375C6.612 7.27344 6.85663 7.068 6.96112 6.98012C7.5905 6.45169 7.90697 6.18687 7.98891 5.72256C8.15694 4.76069 5.61094 1.20175 5.58422 1.16969C5.4687 1.00467 5.31795 0.867387 5.14287 0.76778C4.96779 0.668173 4.77275 0.608729 4.57187 0.59375C3.53994 0.59375 0.59375 4.41572 0.59375 5.05934C0.59375 5.09675 0.647781 8.89913 5.33663 13.6687C10.1015 18.3522 13.9032 18.4062 13.9407 18.4062C14.5849 18.4062 18.4062 15.4601 18.4062 14.4281C18.3914 14.228 18.3323 14.0336 18.2333 13.859C18.1342 13.6845 17.9976 13.5341 17.8333 13.4187Z"
    fill="#7C7C7C"
  />
</svg>