<svg 
  xmlns="http://www.w3.org/2000/svg"
  width="19.334"
  height="19.334"
  viewBox="0 0 19.334 19.334"
>
  <path
    id="print"
    d="M16.918,7.25V2.917a1.209,1.209,0,0,0-.354-.855L14.855.354A1.208,1.208,0,0,0,14,0H3.625A1.209,1.209,0,0,0,2.417,1.208V7.25A2.417,2.417,0,0,0,0,9.667V13.9a.6.6,0,0,0,.6.6H2.417v3.625a1.209,1.209,0,0,0,1.208,1.208H15.709a1.209,1.209,0,0,0,1.208-1.208V14.5H18.73a.6.6,0,0,0,.6-.6V9.667A2.417,2.417,0,0,0,16.918,7.25ZM14.5,16.918H4.834V13.292H14.5Zm0-8.459H4.834V2.417h7.25V4.229a.6.6,0,0,0,.6.6H14.5Zm1.813,2.719a.906.906,0,1,1,.906-.906A.907.907,0,0,1,16.313,11.178Z"
    fill="#444"
    />
</svg>