<svg width="26" height="26" viewBox="0 0 26 26" fill="none" xmlns="http://www.w3.org/2000/svg">
  <rect width="26" height="26" rx="5" fill="#F4F1F1"/>
  <path d="M13.5463 16.889L19.7763 10.6588C19.9206 10.5147 20 10.3224 20 10.1173C20 9.91217 19.9206 9.71982 19.7763 9.57572L19.3176 9.11691C19.0188 8.81836 18.533 8.81836 18.2345 9.11691L13.0029 14.3485L7.76547 9.11111C7.62126 8.96701 7.42901 8.88745 7.22402 8.88745C7.01881 8.88745 6.82656 8.96701 6.68224 9.11111L6.22366 9.56992C6.07945 9.71413 6 9.90637 6 10.1115C6 10.3166 6.07945 10.5089 6.22366 10.653L12.4594 16.889C12.6041 17.0335 12.7972 17.1128 13.0026 17.1123C13.2087 17.1128 13.4017 17.0335 13.5463 16.889Z" fill="#7C7C7C"/>
</svg>